# xmcd
#
# Track frame offsets:
#	150
#	22823
#	45447
#	68241
#	89159
#	108370
#	124634
#	148540
#	171571
#	195106
#	214609
#	236006
#
# Disc length: 3313 seconds
#
# Revision: 1
# Processed by: cddbd v1.5.2PL0 Copyright (c) Steve Scherf et al.
# Submitted via: audiograbber 1.83.01
#
DISCID=a00cef0c
DTITLE=The Derek Trucks Band - Already Free
DYEAR=2009
DGENRE=Rock
TTITLE0=Down In The Flood
TTITLE1=Something To Make You Happy
TTITLE2=Maybe This Time
TTITLE3=Sweet Inspiration
TTITLE4=Don't Miss Me
TTITLE5=Get What You Deserve
TTITLE6=Our Love
TTITLE7=Down Don't Bother Me
TTITLE8=Days Is Almost Gone
TTITLE9=Back Where I Started
TTITLE10=I Know
TTITLE11=Already Free
EXTD=
EXTT0=
EXTT1=
EXTT2=
EXTT3=
EXTT4=
EXTT5=
EXTT6=
EXTT7=
EXTT8=
EXTT9=
EXTT10=
EXTT11=
PLAYORDER=
